<svg xmlns="http://www.w3.org/2000/svg" data-name="Layer 1" width="847.6197" height="386.288" viewBox="0 0 847.6197 386.288" xmlns:xlink="http://www.w3.org/1999/xlink"><circle cx="779.26626" cy="180.30992" r="38" fill="#f2f2f2"/><circle cx="779.26626" cy="180.30992" r="10" fill="#e6e6e6"/><path d="M953.62933,437.37949c4.21232,3.43649,5.49592,8.85257,4.71218,14.08229a24.45215,24.45215,0,0,1-8.394,14.68089c-5.00924,4.45233-11.1191,7.46085-17.01448,10.54154a123.75213,123.75213,0,0,0-15.57529,9.45471c-18.96063,13.7809-33.28511,33.40312-41.48334,55.3-8.1844,21.85994-10.38035,46.67168-4.16128,69.32729,3.077,11.20916,9.30169,23.30307,20.89812,27.5209,9.24369,3.36209,21.864,1.19633,26.57069-8.33047,5.05592-10.23367-1.998-21.73722-11.08431-26.81766-11.77824-6.5856-25.84735-1.77336-36.44112,4.89279-11.66306,7.339-21.03868,17.87056-33.21534,24.44828a41.73876,41.73876,0,0,1-17.84367,5.20536,44.68956,44.68956,0,0,1-16.909-2.61231,57.27268,57.27268,0,0,1-27.66166-21.47129c-7.73426-11.24292-11.19627-25.02477-11.82763-38.52511-1.41262-30.20619,10.51982-58.4649,20.09358-86.47742a264.21067,264.21067,0,0,0,11.51923-44.8596,232.40593,232.40593,0,0,0,2.54533-46.38837c-.63367-13.71367-1.98648-28.054-8.0391-40.57887-5.32217-11.01334-15.0489-20.02716-27.34646-22.29967a27.27728,27.27728,0,0,0-16.43941,1.88837c-1.75416.80022-.23123,3.38662,1.51416,2.59041,10.88282-4.96455,23.74565-.13414,31.78379,7.88181,9.38649,9.36057,12.83346,23.18379,14.36407,35.93871a225.58927,225.58927,0,0,1-7.96815,89.993c-8.34677,28.35216-21.476,55.521-24.5056,85.22575-1.38243,13.55453-.67224,27.56718,3.66032,40.56478a63.359,63.359,0,0,0,20.07822,29.56579c8.84214,7.14826,19.71981,12.01852,31.171,12.56105,12.85436.609,24.12668-5.12157,34.09957-12.7448,10.68114-8.1646,20.50852-18.23866,33.447-22.81668,5.89862-2.08709,12.617-3.0607,18.67336-1.052a23.4303,23.4303,0,0,1,12.4523,10.012c2.63043,4.37385,3.60072,9.84247,1.20032,14.5411-2.25686,4.41768-6.662,6.97294-11.43071,7.84743a22.17976,22.17976,0,0,1-14.72394-2.50178c-5.22406-2.98356-9.04665-7.99083-11.72468-13.28109-5.34038-10.5495-7.13473-23.10743-7.40712-34.81666a115.28688,115.28688,0,0,1,4.34843-33.85332,119.45634,119.45634,0,0,1,36.08916-57.52881,105.96132,105.96132,0,0,1,13.97433-10.289c5.38-3.316,11.12259-5.96561,16.6072-9.09444,5.39679-3.07872,10.71546-6.75721,14.43185-11.82346a25.43467,25.43467,0,0,0,4.88726-14.95064,16.76606,16.76606,0,0,0-5.80386-13.07206c-1.48381-1.21052-3.61863.89979-2.12132,2.12132Z" transform="translate(-176.19015 -256.856)" fill="#ccc"/><path d="M598.87633,612.16592a87.33929,87.33929,0,0,0,44.47022,13.94,20.84973,20.84973,0,0,1-.9502,1.96,25.06735,25.06735,0,0,1-7.60009,8.55,24.96917,24.96917,0,0,1-39.33985-20.42v-4.03Z" transform="translate(-176.19015 -256.856)" fill="#3f3d56"/><path d="M692.14635,613.34591v2.85a24.96061,24.96061,0,0,1-46.87988,11.95,20.84826,20.84826,0,0,1-.99023-2.01c.73.02,1.45019.03,2.18017.03A87.46657,87.46657,0,0,0,692.14635,613.34591Z" transform="translate(-176.19015 -256.856)" fill="#3f3d56"/><path d="M725.78649,311.9659c-.75-.11-1.51025-.18-2.27-.23a83.981,83.981,0,0,1,1.66992,62.71c.76026-.09,1.51026-.21,2.26026-.35a31.50228,31.50228,0,0,0-1.66016-62.13Z" transform="translate(-176.19015 -256.856)" fill="#3f3d56"/><path d="M569.39635,311.73592c-.75976.05-1.52.12-2.27.23a31.50227,31.50227,0,0,0-1.66015,62.13c.75.14,1.5.26,2.26025.35a83.981,83.981,0,0,1,1.66992-62.71Z" transform="translate(-176.19015 -256.856)" fill="#3f3d56"/><path d="M725.78649,311.9659a85.99677,85.99677,0,1,0,6.66992,33.2A86.1148,86.1148,0,0,0,725.78649,311.9659Zm-.6001,62.48a83.981,83.981,0,1,1,5.27-29.28A84.122,84.122,0,0,1,725.18639,374.44594Z" transform="translate(-176.19015 -256.856)" fill="#3f3d56"/><path d="M690.45641,325.66592h-88a17.5,17.5,0,0,0,0,35h88a17.5,17.5,0,0,0,0-35Z" transform="translate(-176.19015 -256.856)" fill="#3f3d56"/><path d="M646.45641,448.16592a89.99675,89.99675,0,0,0-4.06006,179.9c.9502.05,1.91016.08,2.87012.08.3999.02.79.02,1.18994.02a90,90,0,0,0,0-180Zm45.68994,165.18a87.46657,87.46657,0,0,1-45.68994,12.82c-.73,0-1.45019-.01-2.18017-.03q-.46509,0-.92969-.03a88.0512,88.0512,0,1,1,48.7998-12.76Z" transform="translate(-176.19015 -256.856)" fill="#3f3d56"/><path d="M709.62316,515.99941h-39.3335a10.3335,10.3335,0,0,1,0-20.667h39.3335a10.3335,10.3335,0,0,1,0,20.667Z" transform="translate(-176.19015 -256.856)" fill="#3f3d56"/><circle cx="496.72182" cy="248.80992" r="5.24444" fill="#f2f2f2"/><circle cx="513.76626" cy="248.80992" r="5.24444" fill="#f2f2f2"/><circle cx="530.81071" cy="248.80992" r="5.24444" fill="#007ec6"/><path d="M340.81553,638.55356c8.99256-7.59864,14.45479-19.60227,13.02232-31.28788s-10.30472-22.42829-21.81332-24.90978-24.62761,4.38768-28.12315,15.62987c-1.92376-21.6745-4.14055-44.25714-15.6641-62.715-10.43429-16.71314-28.50667-28.672-48.09305-30.81147s-40.20832,5.941-52.42362,21.40027-15.20618,37.93388-6.6509,55.68241c6.30238,13.07473,17.91358,22.80511,30.07923,30.72127,38.81262,25.2553,86.95964,33.78829,132.77224,27.04622Z" transform="translate(-176.19015 -256.856)" fill="#f2f2f2"/><path d="M207.08924,510.8482a317.625,317.625,0,0,1,44.26411,43.95415,322.163,322.163,0,0,1,34.90754,51.66276,320.84426,320.84426,0,0,1,14.94817,31.65122c.89773,2.19991-2.67454,3.15752-3.56229.98208A315.27614,315.27614,0,0,0,268.839,584.59284a317.26015,317.26015,0,0,0-38.63584-47.729A316.50072,316.50072,0,0,0,204.477,513.46043c-1.8443-1.5018.78314-4.10164,2.61223-2.61223Z" transform="translate(-176.19015 -256.856)" fill="#fff"/><circle cx="161.57649" cy="35" r="31" fill="#2f2e41"/><path d="M453.38374,405.36728a10.77786,10.77786,0,0,1-2.14862,2.37261,11.0024,11.0024,0,0,1-16.227-2.49759,10.23957,10.23957,0,0,1-.53728-.9378l-48.84971-4.713a18.013,18.013,0,0,1-15.887-14.49974l-2.77273-14.61708,19.06439-2.96585,3.42115,11.7085,47.6279,11.69913a10.48965,10.48965,0,0,1,1.17046-.89009,11.00253,11.00253,0,0,1,15.13851,15.341Z" transform="translate(-176.19015 -256.856)" fill="#ffb8b8"/><path d="M390.6179,377.45l-21.296,5.75282a4.50507,4.50507,0,0,1-5.51783-3.17073l-7.459-27.61183a12.3986,12.3986,0,0,1,23.00384-8.88775l14.10045,27.5212A4.49956,4.49956,0,0,1,390.6179,377.45Z" transform="translate(-176.19015 -256.856)" fill="#2f2e41"/><polygon points="202.092 374.133 214.351 374.133 220.184 326.845 202.089 326.846 202.092 374.133" fill="#ffb8b8"/><path d="M375.65481,627.48572h38.53073a0,0,0,0,1,0,0v14.88687a0,0,0,0,1,0,0H390.54167a14.88686,14.88686,0,0,1-14.88686-14.88686v0A0,0,0,0,1,375.65481,627.48572Z" transform="translate(613.67919 1012.98428) rotate(179.99738)" fill="#2f2e41"/><polygon points="92.822 362.185 104.292 366.515 126.454 324.337 109.526 317.946 92.822 362.185" fill="#ffb8b8"/><path d="M263.92068,621.16128h38.53073a0,0,0,0,1,0,0v14.88687a0,0,0,0,1,0,0H278.80754a14.88686,14.88686,0,0,1-14.88686-14.88686v0A0,0,0,0,1,263.92068,621.16128Z" transform="translate(149.88268 1059.86131) rotate(-159.31482)" fill="#2f2e41"/><path d="M377.89481,620.00541a4.49693,4.49693,0,0,1-4.27564-3.11425L342.35062,520.3267a1.50038,1.50038,0,0,0-2.78491-.17676l-43.33448,92.20118a4.50408,4.50408,0,0,1-5.49536,2.35547L273.669,609.01713a4.5089,4.5089,0,0,1-2.92774-5.418l26.54444-100.54687a229.08189,229.08189,0,0,0,6.00342-32.42676,73.50978,73.50978,0,0,1,23.71679-46.877,34.20494,34.20494,0,0,0,10.76587-20.46289l.07154-.50293,38.87377,6.13769,24.62354,200.92871a4.52009,4.52009,0,0,1-3.29688,4.8916l-18.97387,5.1084A4.47969,4.47969,0,0,1,377.89481,620.00541Z" transform="translate(-176.19015 -256.856)" fill="#2f2e41"/><circle cx="173.89145" cy="41.29134" r="24.56103" fill="#ffb8b8"/><path d="M374.3013,413.20463c-.0769,0-.15381-.002-.23144-.00586L335.534,411.272a4.475,4.475,0,0,1-4.252-4.03515l-5.26441-51.32813a23.17175,23.17175,0,0,1,29.32422-24.66992h.00024a22.47446,22.47446,0,0,1,8.24561,4.2417c27.10815,22.26221,18.36743,62.59815,15.04272,74.43018A4.48226,4.48226,0,0,1,374.3013,413.20463Z" transform="translate(-176.19015 -256.856)" fill="#007ec6"/><path d="M340.7764,447.67045a10.77781,10.77781,0,0,1-3.16553-.47461,11.0024,11.0024,0,0,1-6.90918-14.89355,10.23809,10.23809,0,0,1,.48316-.9668l-23.13526-43.28125a18.013,18.013,0,0,1,3.27173-21.25879l10.63379-10.40527,13.02954,14.22949-7.853,9.334,16.64209,46.13378a10.492,10.492,0,0,1,1.3894.48145,11.00252,11.00252,0,0,1-4.38672,21.10156Z" transform="translate(-176.19015 -256.856)" fill="#ffb8b8"/><path d="M329.25165,379.94968l-16.586-14.54365a4.50508,4.50508,0,0,1-.41663-6.35031l18.85694-21.505a12.3986,12.3986,0,0,1,20.14207,14.229L336.14543,378.764a4.49956,4.49956,0,0,1-6.89378,1.18565Z" transform="translate(-176.19015 -256.856)" fill="#2f2e41"/><path d="M334.27658,322.00531c2.24091.79458,4.98823,1.49515,6.75163-.15284,1.72153-1.60886,1.40789-4.551.39375-6.71849s-2.587-4.09633-3.0692-6.45551c-.69115-3.38111,1.09579-6.89375,3.64667-9.09811s5.7618-3.36231,8.89636-4.47657l17.19315-6.11178c4.25582-1.51284,8.84187-3.29,11.22343-7.2712,3.446-5.76061.2957-13.99506-5.3568-17.35649s-12.79229-2.7352-18.89074-.3716c-3.373,1.30726-6.58157,3.10864-10.06978,4.02888-6.88427,1.81616-14.71189.18688-20.76149,4.06849-5.26616,3.37892-7.70874,10.27337-7.53138,16.72432s2.55256,12.5945,5.05791,18.4942c1.49051,3.50993,3.08274,7.0603,5.60736,9.85195s6.17289,4.74455,9.81715,4.23088Z" transform="translate(-176.19015 -256.856)" fill="#2f2e41"/><circle cx="135.57649" cy="20" r="20" fill="#2f2e41"/><path id="a5b0fbf6-85a2-48e8-ad40-c81376cd9893-93" data-name="Path 22" d="M473.97839,392.30638l-.35491-.04878,1.33654-9.72271a5.68039,5.68039,0,0,0-4.85388-6.401l-20.59957-2.83172a5.68038,5.68038,0,0,0-6.401,4.85388l-7.33245,53.34046a5.68038,5.68038,0,0,0,4.85388,6.401l20.59956,2.83172a5.6804,5.6804,0,0,0,6.401-4.85389L472.672,399.1784l.35491.04879Z" transform="translate(-176.19015 -256.856)" fill="#3f3d56"/><path id="a5d1dbd7-b3f0-4599-af89-34309e57a462-94" data-name="Path 23" d="M469.4586,378.98628l-2.56459-.35254a1.92232,1.92232,0,0,1-2.12411,2.38125l-11.25648-1.54737a1.92233,1.92233,0,0,1-1.40261-2.86605l-2.39549-.3293a4.04622,4.04622,0,0,0-4.55957,3.4575L438.17193,430.534a4.04624,4.04624,0,0,0,3.45751,4.55957l19.74328,2.714a4.04624,4.04624,0,0,0,4.55957-3.4575h0l6.98382-50.80435a4.04623,4.04623,0,0,0-3.45751-4.55949Z" transform="translate(-176.19015 -256.856)" fill="#fff"/><circle cx="279.26626" cy="153.30992" r="11" fill="#007ec6"/><path d="M454.36606,414.36216a1.14079,1.14079,0,0,1-.68644-.228l-.01227-.00921-2.58508-1.97923a1.14849,1.14849,0,1,1,1.397-1.8233l1.67441,1.28392,3.95691-5.16039a1.14846,1.14846,0,0,1,1.61023-.21256l-.0246.0334.02524-.03291a1.14978,1.14978,0,0,1,.21256,1.61024l-4.65427,6.06985A1.149,1.149,0,0,1,454.36606,414.36216Z" transform="translate(-176.19015 -256.856)" fill="#fff"/><path d="M1022.61917,643.144h-839.294a1.19069,1.19069,0,0,1,0-2.38137h839.294a1.19068,1.19068,0,0,1,0,2.38137Z" transform="translate(-176.19015 -256.856)" fill="#ccc"/></svg>