<svg id="Layer_1" data-name="Layer 1" xmlns="http://www.w3.org/2000/svg" viewBox="0 0 268.23 276"><defs><style>.cls-1{fill:#217fc8;}.cls-2{fill:#199ae4;}.cls-3{fill:#2571ba;}.cls-4{fill:#2964ac;}.cls-5{fill:#1d8cd6;}</style></defs><path class="cls-1" d="M88.14,268.74H34a20.62,20.62,0,1,1,0-41.23H88.14a20.62,20.62,0,0,1,0,41.23Z"/><path class="cls-2" d="M80,48.49H34A20.62,20.62,0,1,1,34,7.26H80a20.62,20.62,0,0,1,0,41.23Z"/><path class="cls-3" d="M234.27,48.49H143.59a20.62,20.62,0,1,1,0-41.23h90.68a20.62,20.62,0,0,1,0,41.23Z"/><path class="cls-4" d="M80,195.32H34a20.62,20.62,0,1,1,0-41.23H80a20.62,20.62,0,0,1,0,41.23Z"/><path class="cls-5" d="M234.17,195.32H146.85a20.62,20.62,0,0,1,0-41.23h87.32a20.62,20.62,0,0,1,0,41.23Z"/><path class="cls-4" d="M191,121.91H34a20.62,20.62,0,1,1,0-41.23H191a20.62,20.62,0,0,1,0,41.23Z"/></svg>