<?xml version="1.0" encoding="utf-8"?>
<svg viewBox="-32.95 -12.336 400 400" width="400" height="400" xmlns="http://www.w3.org/2000/svg">
  <path class="cls-1" d="M 133.245 313.509 L 79.105 313.509 C 63.236 313.859 52.939 296.898 60.571 282.98 C 64.27 276.235 71.415 272.11 79.105 272.279 L 133.245 272.279 C 149.115 272.629 158.655 290.026 150.417 303.595 C 146.762 309.616 140.287 313.354 133.245 313.509 Z" style="fill: rgb(33, 127, 200);"/>
  <path class="cls-2" d="M 125.105 93.259 L 79.105 93.259 C 63.236 93.609 52.939 76.648 60.571 62.73 C 64.27 55.985 71.415 51.86 79.105 52.029 L 125.105 52.029 C 140.975 52.379 150.515 69.776 142.277 83.345 C 138.622 89.366 132.147 93.104 125.105 93.259 L 125.105 93.259 Z" style="fill: rgb(25, 154, 228);"/>
  <path class="cls-3" d="M 279.375 93.259 L 188.695 93.259 C 172.826 93.609 162.529 76.648 170.161 62.73 C 173.86 55.985 181.005 51.86 188.695 52.029 L 279.375 52.029 C 295.245 52.379 304.785 69.776 296.547 83.345 C 292.892 89.366 286.417 93.104 279.375 93.259 Z" style="fill: rgb(37, 113, 186);"/>
  <path class="cls-4" d="M 125.105 240.089 L 79.105 240.089 C 63.236 240.439 52.939 223.478 60.571 209.56 C 64.27 202.815 71.415 198.69 79.105 198.859 L 125.105 198.859 C 140.975 199.209 150.515 216.606 142.277 230.175 C 138.622 236.196 132.147 239.934 125.105 240.089 Z" style="fill: rgb(41, 100, 172);"/>
  <path class="cls-5" d="M 279.275 240.089 L 191.955 240.089 C 176.086 239.74 166.546 222.342 174.783 208.774 C 178.439 202.753 184.914 199.014 191.955 198.859 L 279.275 198.859 C 295.145 199.209 304.685 216.606 296.447 230.175 C 292.792 236.196 286.317 239.934 279.275 240.089 Z" style="fill: rgb(29, 140, 214);"/>
  <path class="cls-4" d="M 236.105 166.679 L 79.105 166.679 C 63.236 167.029 52.939 150.068 60.571 136.15 C 64.27 129.405 71.415 125.28 79.105 125.449 L 236.105 125.449 C 251.975 125.799 261.515 143.196 253.277 156.765 C 249.622 162.786 243.147 166.524 236.105 166.679 Z" style="fill: rgb(41, 100, 172);"/>
</svg>