<svg id="Layer_1" data-name="Layer 1" xmlns="http://www.w3.org/2000/svg" viewBox="0 0 700 700"><defs><style>.cls-1{fill:#199ae4;}.cls-2{fill:#fff;}</style></defs><rect class="cls-1" width="700" height="700" rx="63.18"/><path class="cls-2" d="M274.12,565.79H184.69a34,34,0,1,1,0-68h89.43a34,34,0,0,1,0,68Z"/><path class="cls-2" d="M260.66,202.26h-76a34,34,0,1,1,0-68h76a34,34,0,1,1,0,68Z"/><path class="cls-2" d="M515.31,202.26H365.64a34,34,0,1,1,0-68H515.31a34,34,0,1,1,0,68Z"/><path class="cls-2" d="M260.66,444.62h-76a34,34,0,0,1,0-68.06h76a34,34,0,0,1,0,68.06Z"/><path class="cls-2" d="M515.15,444.62H371a34,34,0,1,1,0-68.06H515.15a34,34,0,0,1,0,68.06Z"/><path class="cls-2" d="M443.93,323.44H184.69a34,34,0,0,1,0-68.06H443.93a34,34,0,0,1,0,68.06Z"/></svg>