<svg width="2574" height="571" viewBox="0 0 2574 571" fill="none" xmlns="http://www.w3.org/2000/svg">
<path d="M815 138V109.5V81L1072.5 81.5L1073 138H979V433H908V138H815Z" fill="#22C55E"/>
<path d="M1515.5 151.5C1519.9 150.7 1525.1 149.9 1527 149.6C1528.9 149.4 1536.4 149.3 1543.5 149.5C1550.7 149.7 1560.1 150.6 1564.5 151.4C1568.9 152.3 1575.7 154 1579.5 155.3C1583.4 156.6 1590.3 159.7 1595 162.1C1599.7 164.5 1606.9 169 1611 172.1C1615.1 175.2 1620.5 180 1623 182.6C1625.5 185.3 1628.5 188.8 1631.9 193.5L1632 154H1703L1702.7 305.7L1702.7 306.677C1702.4 455.31 1702.4 457.621 1700.3 467C1699.2 472.2 1696.8 480.8 1695 486C1693.3 491.2 1689.8 499.5 1687.2 504.5C1684.6 509.4 1680 516.9 1676.9 521C1673.8 525.1 1668 531.5 1664.1 535.2C1660.2 539 1653.5 544.3 1649.3 547.2C1645 550 1638.1 554.1 1634 556.1C1629.9 558.2 1622.5 561.2 1617.5 562.9C1612.6 564.5 1605.1 566.5 1601 567.4C1596.9 568.2 1589.1 569.3 1583.8 569.9C1578.4 570.5 1569.8 571 1564.8 571C1559.7 571 1550.6 570.5 1544.5 569.9C1538.5 569.3 1529 568 1523.5 566.9C1518 565.8 1509.5 563.5 1504.5 561.9C1499.6 560.2 1491.9 557.1 1487.5 555C1483.1 552.9 1476.1 548.9 1472 546.1C1467.9 543.4 1461.4 538.3 1457.6 534.8C1453.8 531.3 1448.1 525.3 1445.1 521.5C1442 517.6 1437.6 510.9 1435.4 506.5C1433.1 502.1 1430.3 495.6 1429.2 492C1428 488.4 1426.5 481.5 1425.8 476.7C1425.1 471.9 1424.7 467.7 1424.9 467.5C1425.1 467.2 1440.7 467 1493.5 467L1496.9 474.2C1499.4 479.7 1502.2 483.4 1507.9 489.1C1513.8 495 1517.4 497.7 1524 500.9C1529.4 503.5 1536.2 505.8 1542.5 507.1C1550.8 508.8 1554.7 509.1 1565.5 508.7C1573 508.4 1581 507.4 1584.5 506.5C1587.8 505.5 1593.2 503.5 1596.5 501.9C1599.8 500.3 1605.1 496.8 1608.3 494.2C1611.4 491.6 1615.8 487 1618.1 484C1620.3 481 1623.2 476.2 1624.5 473.5C1625.8 470.7 1627.9 464.7 1629 460C1631 452.5 1631.3 447.9 1632.3 392.5L1623.3 402C1618.3 407.2 1611 413.8 1606.9 416.6C1602.8 419.4 1596.1 423.4 1592 425.5C1587.9 427.6 1581.4 430.3 1577.5 431.7C1573.7 433 1566.7 434.8 1562 435.7C1556.6 436.7 1548.4 437.3 1539.5 437.3C1530.2 437.3 1522.5 436.7 1516.5 435.6C1511.6 434.6 1503.7 432.4 1499 430.8C1494.3 429.1 1487.8 426.4 1484.5 424.8C1481.2 423.1 1474.7 419.2 1470 416.1C1465.3 413 1457.7 406.7 1453 402C1448.3 397.3 1441.5 389 1437.8 383.5C1434.1 378 1429.5 370.1 1427.6 366C1425.7 361.9 1422.8 354.4 1421.1 349.5C1419.4 344.5 1417.2 336.2 1416 331C1414.9 325.8 1413.5 315.2 1412.8 307.5C1411.9 296.6 1411.9 290.1 1412.8 278.5C1413.5 270.2 1415.1 258.8 1416.4 253C1417.7 247.2 1420.3 238.4 1422 233.5C1423.8 228.5 1427.4 220.2 1430.1 215C1432.8 209.8 1437.4 202.3 1440.2 198.5C1443.1 194.6 1448.4 188.6 1452 185.1C1455.6 181.5 1461.9 176.1 1466 173.1C1470.1 170 1477.6 165.4 1482.5 162.8C1487.5 160.3 1495.1 157 1499.5 155.6C1503.9 154.1 1511.1 152.3 1515.5 151.5Z" fill="#22C55E"/>
<path d="M1844 151.6C1848.7 150.8 1854.3 149.9 1856.5 149.6C1858.7 149.4 1866.1 149.4 1873 149.6C1879.9 149.8 1889.1 150.6 1893.5 151.4C1897.9 152.3 1904.7 154 1908.5 155.3C1912.4 156.6 1919.1 159.5 1923.5 161.7C1927.9 164 1935.1 168.4 1939.5 171.7C1943.9 174.9 1950.2 180.6 1953.5 184.2C1956.8 187.9 1959.8 190.7 1960.3 190.4C1960.7 190.2 1961 181.9 1961 154H2032L2031.4 457.5L2029.1 467.5C2027.9 473 2025.8 480.9 2024.4 485C2023 489.1 2019.7 497 2017.1 502.5C2014.4 508 2009.6 516.1 2006.3 520.5C2003 524.9 1997 531.6 1992.9 535.5C1988.7 539.3 1982.2 544.6 1978.4 547.2C1974.6 549.7 1967.9 553.7 1963.5 555.9C1959.1 558.2 1951.5 561.3 1946.5 562.9C1941.6 564.5 1934.1 566.5 1930 567.4C1925.9 568.2 1917.8 569.4 1912 570C1906.2 570.5 1897.7 571 1893 571C1888.3 571 1879.6 570.5 1873.5 569.9C1867.5 569.3 1858 568 1852.5 566.9C1847 565.8 1838.5 563.5 1833.5 561.9C1828.6 560.2 1820.7 556.9 1816 554.6C1811.3 552.3 1804.1 548.1 1800 545.4C1795.9 542.6 1789.4 537.4 1785.6 533.9C1781.8 530.4 1776.5 524.6 1773.8 521C1771 517.4 1766.6 510 1763.9 504.5C1761.2 499 1757.9 490.2 1756.6 485C1755.3 479.8 1754 473.7 1753.5 467.5L1823 467L1826.9 475.2C1829.8 481.2 1832.5 485.1 1836.7 489.2C1839.9 492.3 1845.2 496.5 1848.5 498.5C1851.8 500.4 1857.9 503.1 1862 504.5C1866.1 505.8 1872.2 507.4 1875.5 508C1878.8 508.5 1885.9 509 1891.3 509C1896.6 509 1904.3 508.4 1908.3 507.6C1912.2 506.8 1918.4 505 1922 503.5C1925.6 502.1 1931.2 499 1934.5 496.6C1937.8 494.2 1942.3 490.3 1944.5 487.8C1946.7 485.3 1949.9 480.7 1951.7 477.4C1953.4 474.2 1955.8 468.1 1956.9 464C1958 459.9 1959.4 452.7 1960 448C1960.5 443.3 1961 429.5 1961 417.2C1961 403.1 1960.6 395 1960 395C1959.5 395 1955.5 398.7 1951.1 403.2C1946.8 407.8 1939.9 413.8 1935.9 416.6C1931.8 419.4 1925.1 423.4 1921 425.5C1916.9 427.6 1910.4 430.3 1906.5 431.7C1902.7 433 1895.7 434.8 1891 435.7C1885.6 436.7 1877.4 437.3 1868.5 437.3C1860.8 437.3 1851.6 436.7 1848 436.1C1844.4 435.4 1837.7 433.7 1833 432.3C1828.3 431 1820.9 428.1 1816.5 426C1812.1 423.9 1804.9 419.8 1800.5 417C1796.1 414.1 1788 407.2 1782.4 401.6C1776.9 396.1 1770 387.9 1767.1 383.5C1764.2 379.1 1759.7 371 1757 365.5C1754.3 360 1750.7 351.2 1749 346C1747.3 340.8 1745 331.3 1743.9 325C1742.8 318.7 1741.7 307.6 1741.3 300.5C1741 293 1741.2 282.4 1741.9 275.5C1742.6 268.9 1743.8 260.1 1744.6 256C1745.5 251.9 1747.6 244 1749.4 238.5C1751.3 233 1754.9 224.2 1757.5 219C1760.1 213.8 1764.6 206.1 1767.3 202C1770.1 197.9 1776.3 190.5 1781 185.7C1785.7 180.8 1793.3 174.2 1798 171C1802.7 167.9 1809.2 163.9 1812.5 162.2C1815.8 160.6 1822.3 157.9 1827 156.2C1831.7 154.5 1839.3 152.5 1844 151.6Z" fill="#22C55E"/>
<path d="M1229.5 156.8C1233.9 155.1 1241.3 152.9 1246 151.9C1250.7 151 1257.5 150.1 1268 150V223.5L1250.3 224.2C1237.2 224.7 1230.4 225.4 1224.5 226.9C1220.1 228.1 1213.6 230.5 1210 232.2C1206.4 234 1201.2 237.8 1198.3 240.7C1195.2 243.8 1191.8 248.6 1190.1 252.2C1188.5 255.7 1186.5 261.6 1185.5 265.5C1184.6 269.3 1183.4 277.7 1182.9 284C1182.4 290.3 1182 326.4 1182 433H1112V154H1182L1182.3 173.7C1182.4 185.6 1182.9 193.5 1183.5 193.7C1184.1 193.9 1185.4 192.6 1186.5 190.8C1187.5 189 1191.8 184 1196 179.6C1200.2 175.2 1207.4 169.2 1212.5 165.8C1217.5 162.6 1225.1 158.5 1229.5 156.8Z" fill="#22C55E"/>
<path d="M1303 433V293.5V154H1373V433H1303Z" fill="#22C55E"/>
<path d="M1533.5 215.6C1537.3 214.2 1543.4 212.7 1547 212.1C1550.6 211.6 1557.1 211.3 1561.5 211.6C1565.9 211.8 1572.9 213 1577 214.1C1581.1 215.2 1587.9 217.9 1592 220C1596.1 222.2 1602.4 226.5 1605.9 229.7C1609.4 232.9 1614.2 238.2 1616.6 241.5C1618.9 244.8 1622.2 250.5 1623.9 254.2C1625.6 258 1627.9 264.7 1628.9 269.2C1630 273.8 1631.2 281.5 1631.5 286.5C1631.9 291.5 1631.7 299.9 1631.1 305.2C1630.5 310.6 1628.6 319.2 1627 324.2C1625.3 329.3 1622.1 336.7 1619.8 340.5C1617.6 344.3 1612.3 350.9 1608.1 355C1602 361 1598.6 363.5 1591 367.2C1585.8 369.8 1578.6 372.5 1575 373.4C1571.2 374.3 1564.1 375 1558 375C1551.9 375 1545 374.4 1541.5 373.5C1538.2 372.7 1531.4 370 1526.5 367.5C1520.7 364.7 1515.1 360.9 1510.6 356.8C1506.8 353.3 1501.8 347.8 1499.5 344.5C1497.1 341.2 1494.3 336.6 1493.1 334.2C1492 331.9 1489.8 326.5 1488.4 322.2C1486.6 316.8 1485.6 311.1 1485 303C1484.6 296.7 1484.6 286.8 1485 281C1485.5 274.3 1486.7 267.8 1488.3 263C1489.7 258.9 1492.8 252.1 1495.1 248C1497.5 243.9 1502.4 237.4 1506 233.6C1509.6 229.9 1515.7 224.8 1519.5 222.4C1523.3 220 1529.7 216.9 1533.5 215.6Z" fill="white"/>
<path d="M1863 215.6C1867.1 214.1 1873.2 212.5 1876.5 212.1C1879.8 211.6 1886.3 211.4 1891 211.7C1895.7 212 1902.7 213.1 1906.5 214.2C1910.3 215.3 1917.1 218 1921.5 220.3C1927.4 223.4 1931.7 226.6 1938.1 233C1945.2 240.1 1947.4 243.1 1951.2 251C1953.8 256.2 1956.6 263.2 1957.4 266.5C1958.3 269.8 1959.5 277.2 1960.1 283C1961 291.2 1961 295.9 1960.1 304.5C1959.4 310.7 1957.6 319.4 1956 324.5C1954.4 329.5 1951.4 336.4 1949.3 339.9C1947.2 343.4 1943 348.9 1940 352.3C1937 355.6 1931.8 360.1 1928.5 362.3C1925.2 364.6 1919.8 367.6 1916.5 369.1C1913.2 370.5 1907.6 372.5 1904 373.4C1900.1 374.3 1893.3 375 1887 375C1879.4 375 1874.4 374.4 1869 372.9C1864.9 371.8 1858.1 369.1 1854 367C1849.9 364.8 1843.6 360.5 1840.1 357.3C1836.6 354.1 1831.8 348.8 1829.5 345.5C1827.1 342.2 1824.1 337.2 1822.7 334.5C1821.4 331.7 1819.1 325.9 1817.7 321.5C1816.3 317.1 1814.7 308.8 1814.1 303C1813.3 295.5 1813.3 289.5 1814 282C1814.7 275.5 1816.3 268 1818.1 262.5C1819.8 257.5 1823 250.4 1825.3 246.5C1827.6 242.6 1832.2 236.6 1835.5 233.1C1838.8 229.6 1844.7 224.8 1848.5 222.5C1852.3 220.1 1858.9 217 1863 215.6Z" fill="white"/>
<path d="M2150 154V205H2180V300C2180 315 2185 330 2200 340C2215 350 2235 355 2260 355C2285 355 2305 350 2320 340C2335 330 2340 315 2340 300V205H2370V154H2340V120C2340 105 2335 90 2320 80C2305 70 2285 65 2260 65C2235 65 2215 70 2200 80C2185 90 2180 105 2180 120V154H2150Z" fill="#22C55E"/>
<path d="M2471 218.1C2475.7 215.9 2482.4 213.3 2486 212.5C2490.4 211.6 2496.4 211.2 2504.5 211.4C2514.1 211.7 2518.1 212.3 2524.5 214.4C2528.9 215.8 2534.6 218.2 2537.2 219.7C2539.7 221.3 2544.2 224.5 2547.2 226.9C2550.1 229.4 2554.5 233.7 2557 236.5C2559.5 239.4 2563.2 245.2 2565.4 249.6C2567.5 253.9 2570.2 260.9 2571.3 265C2572.8 270.6 2573.4 276.8 2573.7 289.5C2574.1 303.9 2573.9 308 2572.1 316.5C2570.7 323.7 2568.7 329.3 2565.1 336.5C2561.9 343 2558.1 348.7 2554.3 352.9C2551.1 356.4 2545.6 361.2 2542 363.5C2538.4 365.9 2532.8 368.9 2529.5 370.3C2526.2 371.7 2519.7 373.6 2515 374.6C2508.8 375.8 2504 376.1 2497 375.7C2491.2 375.3 2484.4 374.2 2479.5 372.6C2474.7 371.1 2468.5 368.2 2464 365.2C2459.9 362.5 2453.9 357.4 2450.7 353.9C2447.5 350.4 2443.4 344.6 2441.6 341C2439.8 337.4 2437.3 331.6 2436.2 328C2435.1 324.4 2433.6 318.8 2432.8 315.5C2432.1 311.9 2431.6 302.8 2431.7 292.5C2431.7 277.5 2432 274.3 2434.4 265.5C2435.8 260 2438.7 252.1 2440.7 248C2443.5 242.3 2446.6 238.3 2453.5 231.4C2460.9 223.9 2464 221.5 2471 218.1Z" fill="white"/>
<path d="M1317.3 42.9C1320.4 41.3 1324.7 39.6 1326.8 39.1C1328.8 38.6 1333.9 38.2 1338 38.1C1342.1 38.1 1347.8 38.6 1350.5 39.4C1353.3 40.1 1357.5 41.7 1360 43C1362.5 44.3 1366.8 47.4 1369.5 50C1372.3 52.6 1375.7 57.2 1377.2 60.1C1378.6 63.1 1380.4 68.4 1381 72C1381.9 76.8 1381.9 80.3 1381.1 85.5C1380.5 89.3 1378.8 95 1377.3 98C1375.8 101 1372.3 105.7 1369.5 108.5C1366.7 111.2 1361.9 114.7 1358.7 116.2C1355.6 117.8 1350 119.5 1346.3 120.2C1341.3 121.1 1337.5 121.1 1332 120.3C1327.7 119.7 1321.9 118.1 1318.5 116.4C1315.2 114.8 1310.2 111.3 1307.4 108.5C1304.6 105.8 1301.3 101.6 1300.2 99.2C1299 96.9 1297.3 92.2 1296.4 88.7C1295.2 84.4 1294.9 80.5 1295.4 75.7C1295.7 72 1297 66.4 1298.2 63.2C1299.6 59.5 1302.4 55.4 1306 51.6C1309.2 48.2 1313.9 44.6 1317.3 42.9Z" fill="#16A34A"/>
<path d="M155.73 5.28924C158.794 3.75746 163.559 1.97039 166.368 1.28961C170.793 0.268423 195.131 0.0982259 339.543 0.0131274C440.47 -0.0719711 509.315 0.268423 511.868 0.693916C514.165 1.11941 518.25 2.31079 520.803 3.24687C523.356 4.18296 527.356 6.22532 529.653 7.75709C532.036 9.28887 535.44 12.0971 537.397 13.9693C539.354 15.8415 542.333 19.5007 544.035 22.0536C545.737 24.6066 548.12 29.3721 549.311 32.691C550.417 35.9247 551.609 41.5412 551.949 45.0302C552.289 49.4554 552.034 53.3699 551.098 57.795C550.332 61.2841 548.375 67.0708 546.588 70.5598C544.46 74.8998 541.652 78.7293 537.908 82.5587C534.078 86.303 530.249 89.1113 525.909 91.2387C522.42 93.0258 516.803 94.9831 513.57 95.6639C508.464 96.7701 484.211 96.9403 340.394 96.9403C202.534 96.9403 172.239 96.6851 167.644 95.749C164.581 95.1533 159.219 93.1109 155.73 91.4089C151.56 89.2815 147.306 86.2179 143.561 82.5587C139.987 79.0697 136.668 74.8147 134.881 71.4108C133.349 68.3472 131.392 63.5817 130.711 60.7735C129.945 57.9652 129.35 52.4338 129.35 48.4342C129.35 44.4346 129.945 38.9032 130.711 36.0949C131.477 33.2866 133.264 28.6913 134.711 25.8831C136.243 22.9046 140.072 18.1391 143.816 14.3948C148.157 9.96966 151.986 7.0763 155.73 5.28924Z" fill="#16A34A"/>
<path d="M23.4872 146.297C26.2103 144.681 30.9759 142.468 34.0394 141.447C39.5693 139.575 39.911 139.575 96.966 139.49L97.0123 139.49C146.455 139.49 155.135 139.66 159.56 140.851C162.368 141.532 166.963 143.404 169.772 144.851C172.58 146.383 177.601 150.212 180.834 153.531C184.153 156.85 187.983 161.785 189.514 164.594C190.961 167.402 192.833 171.997 193.684 174.805C194.62 178.039 195.216 182.72 195.216 187.57C195.216 192.506 194.62 197.101 193.684 200.335C192.833 203.143 190.961 207.739 189.6 210.547C188.153 213.355 184.409 218.291 181.345 221.439C177.856 225.014 173.601 228.332 170.197 230.12C167.133 231.651 162.198 233.609 159.134 234.374C154.199 235.566 147.22 235.736 37.0179 235.225L31.061 232.843C27.7421 231.566 22.6362 228.673 19.5727 226.375C16.5091 224.078 12.3393 219.993 10.2969 217.27C8.25456 214.461 5.6165 210.121 4.51022 207.568C3.31884 205.015 1.87217 200.42 1.19138 197.357C0.59569 194.293 0 189.868 0 187.57C0 185.187 0.510591 180.847 1.19138 177.784C1.78707 174.72 3.65924 169.614 5.19101 166.381C6.80788 163.062 10.382 158.041 13.2754 154.892C16.1687 151.829 20.764 147.914 23.4872 146.297Z" fill="#15803D"/>
<path d="M269.762 144.34C273.251 142.638 277.676 140.936 279.549 140.426C281.506 140 307.801 139.66 340.394 139.575C391.028 139.49 398.346 139.66 402.516 140.851C405.069 141.617 409.494 143.404 412.302 144.766C415.536 146.468 419.791 149.787 423.791 153.871C428.131 158.211 431.109 162.126 432.896 165.87C434.428 168.934 436.215 173.869 436.896 176.933C437.662 179.997 438.257 184.762 438.257 187.57C438.257 190.379 437.491 195.74 436.555 199.484C435.619 203.228 433.577 208.419 432.13 210.972C430.684 213.525 428.131 217.355 426.429 219.397C424.727 221.439 421.067 224.758 418.259 226.801C415.451 228.758 410.515 231.481 401.24 235.225L342.947 235.481C290.782 235.736 284.059 235.566 279.123 234.374C276.06 233.523 271.379 231.822 268.741 230.46C266.018 229.098 261.423 225.78 258.529 222.971C255.551 220.248 251.721 215.568 249.934 212.589C248.147 209.611 245.935 204.675 244.999 201.612C243.722 197.697 243.212 193.697 243.126 187.996C243.126 182.635 243.552 178.209 244.573 174.805C245.424 171.997 247.296 167.402 248.743 164.594C250.275 161.785 254.104 156.765 257.423 153.446C261.763 149.106 265.167 146.553 269.762 144.34Z" fill="#15803D"/>
<path d="M524.632 143.234C526.505 142.468 529.738 141.277 531.866 140.681C534.759 139.915 549.566 139.66 593.137 139.575C643.515 139.49 651.174 139.66 655.259 140.851C657.812 141.617 662.577 143.574 665.896 145.276C669.3 147.063 673.98 150.638 676.959 153.531C679.852 156.509 683.426 161.275 685.213 164.594C686.915 167.913 688.873 172.848 689.638 175.656C690.404 178.465 691 183.826 691 187.57C691 191.315 690.404 196.676 689.638 199.484C688.958 202.292 687.171 207.058 685.639 210.121C683.852 213.696 680.788 217.78 676.959 221.695C672.619 226.12 669.3 228.503 664.619 230.715C661.13 232.417 656.195 234.204 653.812 234.715C650.805 235.339 630.722 235.651 593.562 235.651C556.403 235.651 536.348 235.339 533.398 234.715C530.93 234.204 525.994 232.417 522.505 230.715C517.825 228.503 514.506 226.12 510.166 221.695C506.336 217.78 503.273 213.696 501.486 210.121C499.954 207.058 498.167 202.292 497.486 199.484C496.72 196.676 496.124 191.315 496.124 187.57C496.124 183.826 496.72 178.465 497.486 175.656C498.252 172.848 499.954 168.423 501.23 165.87C502.507 163.317 505.315 159.147 507.272 156.594C509.315 154.041 513.314 150.382 516.123 148.34C518.931 146.383 522.76 144.085 524.632 143.234Z" fill="#10B981"/>
<path d="M52.3356 284.412C55.1439 282.966 59.569 281.094 62.122 280.413C66.0365 279.392 77.2695 279.136 134.456 279.136C193.429 279.051 202.79 279.221 207.215 280.413C210.023 281.094 214.448 282.71 217.001 283.987C219.81 285.348 224.235 288.838 228.149 292.667C232.234 296.667 235.638 300.922 237.255 304.155C238.616 306.964 240.403 311.389 241.169 313.942C241.935 316.495 242.616 321.856 242.701 325.855C242.701 329.855 242.276 335.216 241.68 337.769C241.084 340.322 239.552 344.747 238.191 347.556C236.914 350.364 234.021 354.874 231.894 357.512C229.766 360.235 225.256 364.405 221.937 366.703C218.022 369.426 213.257 371.809 202.535 375.213H135.562C77.4397 375.213 67.8236 375.042 63.3984 373.851C60.5902 373.085 55.9949 371.298 53.1866 369.851C50.2082 368.32 45.4427 364.575 41.6983 360.746C38.1242 357.257 34.2947 352.406 33.0183 350.108C31.7418 347.726 29.9547 342.79 28.9335 339.046C27.9975 335.301 27.2316 329.77 27.2316 326.706C27.2316 323.643 27.8273 318.707 28.5931 315.644C29.2739 312.58 31.3163 307.389 33.0183 304.155C34.8904 300.496 38.2093 296.071 41.6983 292.667C44.7619 289.603 49.5274 285.944 52.3356 284.412Z" fill="#10B981"/>
<path d="M319.97 283.051C322.098 282.115 325.757 280.838 328.055 280.243C330.438 279.647 335.969 279.136 340.394 279.136C345.16 279.136 350.606 279.647 353.584 280.413C356.393 281.179 360.988 282.966 363.796 284.412C366.604 285.944 371.37 289.603 374.434 292.667C377.923 296.071 381.241 300.496 383.114 304.155C384.816 307.389 386.858 312.58 387.539 315.644C388.305 318.707 388.9 323.898 388.9 327.132C388.9 330.366 388.305 335.386 387.624 338.195C386.858 341.003 385.071 345.768 383.624 348.832C381.837 352.576 378.944 356.406 374.519 360.831C370.349 365.001 366.179 368.234 362.775 370.021C359.797 371.468 355.201 373.255 352.563 373.936C349.84 374.617 344.309 375.212 340.139 375.212C334.607 375.212 331.118 374.702 326.183 373.085C322.523 371.979 317.077 369.341 314.099 367.383C311.035 365.341 306.695 361.597 304.483 359.044C302.185 356.491 298.951 351.64 297.334 348.406C295.717 345.173 293.76 339.386 292.994 335.642C291.888 330.025 291.803 327.557 292.484 321.6C292.994 317.601 294.441 311.899 295.632 308.836C296.909 305.772 299.717 300.836 302.015 297.773C304.312 294.709 308.397 290.539 311.12 288.497C313.929 286.455 317.843 283.987 319.97 283.051Z" fill="#15803D"/>
<path d="M453.15 284.412C455.958 282.881 460.383 281.094 462.936 280.413C466.85 279.392 478.083 279.136 535.27 279.136C592.881 279.051 603.689 279.221 607.859 280.328C610.497 281.008 615.092 282.796 617.985 284.242C621.389 285.944 625.559 289.178 629.304 293.007C632.622 296.326 636.537 301.347 637.984 304.155C639.515 306.964 641.302 311.559 641.983 314.367C642.749 317.175 643.345 322.877 643.345 327.132C643.345 331.642 642.834 336.663 641.983 339.471C641.217 342.024 639.26 346.79 637.558 350.108C635.771 353.512 632.197 358.193 629.304 361.171C626.325 364.065 621.56 367.639 618.241 369.426C614.922 371.128 609.986 373.17 607.178 373.851C602.753 375.042 593.307 375.213 535.695 375.213C478.254 375.213 468.638 375.042 464.212 373.851C461.404 373.085 456.468 371.128 453.235 369.426C449.235 367.213 445.491 364.235 441.406 359.895C437.236 355.555 434.513 351.64 432.641 347.556C431.194 344.322 429.492 339.556 428.982 337.088C428.471 334.706 428.046 329.855 428.046 326.451C428.046 323.132 428.641 318.026 429.322 315.218C430.088 312.41 431.875 307.644 433.407 304.581C435.109 301.092 438.257 296.837 442.087 293.092C445.491 289.689 450.256 285.944 453.15 284.412Z" fill="#15803D"/>
<path d="M156.581 422.442C158.198 421.591 162.198 420.23 165.517 419.379C171.218 417.932 179.473 417.847 342.522 418.017C497.06 418.187 513.91 418.358 517.399 419.549C519.526 420.315 523.696 422.187 526.76 423.719C530.164 425.421 534.419 428.654 537.908 432.143C541.737 435.973 544.46 439.802 546.588 444.142C548.375 447.631 550.332 453.418 551.098 456.907C552.034 461.247 552.289 465.332 551.949 469.417C551.694 472.821 550.673 478.012 549.651 480.905C548.715 483.883 546.588 488.394 545.056 490.947C543.524 493.499 540.376 497.499 538.078 499.797C535.865 502.094 532.036 505.243 529.738 506.86C527.356 508.392 522.59 510.689 512.719 514.349L343.798 514.604C229.255 514.774 173.09 514.519 169.346 513.923C166.197 513.413 160.751 511.54 156.581 509.583C151.05 506.86 147.986 504.733 143.306 499.967C139.391 496.052 136.328 491.968 134.541 488.394C133.094 485.33 131.307 480.735 130.626 478.182C129.945 475.629 129.35 470.268 129.35 466.268C129.35 462.268 129.945 456.822 130.626 454.099C131.307 451.461 132.924 447.206 134.115 444.738C135.307 442.355 137.945 438.271 139.902 435.718C141.774 433.165 145.689 429.505 148.497 427.548C151.305 425.591 154.964 423.293 156.581 422.442Z" fill="#16A34A"/>
</svg>