<svg width="24" height="24" viewBox="0 0 24 24" fill="none" xmlns="http://www.w3.org/2000/svg">
<path d="M12 11C11.8023 11 11.6089 11.0586 11.4445 11.1685C11.28 11.2784 11.1518 11.4346 11.0762 11.6173C11.0005 11.8 10.9807 12.0011 11.0192 12.1951C11.0578 12.3891 11.1531 12.5673 11.2929 12.7071C11.4328 12.847 11.611 12.9422 11.8049 12.9808C11.9989 13.0194 12.2 12.9996 12.3827 12.9239C12.5654 12.8482 12.7216 12.72 12.8315 12.5556C12.9414 12.3911 13 12.1978 13 12C13 11.7348 12.8947 11.4804 12.7071 11.2929C12.5196 11.1054 12.2652 11 12 11ZM19.62 12L19.73 11.86C21.08 10 21.4 8.29 20.66 7C19.92 5.71 18.26 5.14 16 5.37H15.82C14.91 3.3 13.56 2 12 2C10.44 2 9.09003 3.3 8.19003 5.4L8.00003 5.37C5.74003 5.14 4.08003 5.71 3.34003 7C2.60003 8.29 2.92003 10 4.27003 11.86L4.38003 12L4.27003 12.14C2.92003 14 2.60003 15.71 3.34003 17C4.00003 18.1 5.27003 18.68 7.00003 18.68C7.31003 18.68 7.63003 18.68 8.00003 18.63H8.18003C9.09003 20.7 10.44 22 12 22C13.56 22 14.91 20.7 15.81 18.6H15.99C16.33 18.6 16.65 18.65 16.99 18.65C18.76 18.65 20.06 18.07 20.69 16.97C21.43 15.68 21.11 13.97 19.76 12.11L19.62 12ZM5.07003 8C5.32003 7.56 6.07003 7.32 7.07003 7.32H7.56003C7.40333 7.93517 7.28642 8.5598 7.21003 9.19C6.70058 9.57537 6.21626 9.99288 5.76003 10.44C5.00003 9.44 4.78003 8.5 5.07003 8ZM5.07003 16C4.78003 15.5 5.07003 14.56 5.74003 13.53C6.19626 13.9771 6.68058 14.3946 7.19003 14.78C7.26643 15.4135 7.38334 16.0415 7.54003 16.66C6.30003 16.74 5.36003 16.5 5.07003 16ZM12 4C12.56 4 13.23 4.66 13.8 5.83C13.1891 6.00731 12.5882 6.21762 12 6.46C11.4119 6.21762 10.811 6.00731 10.2 5.83C10.77 4.66 11.44 4 12 4ZM12 20C11.44 20 10.77 19.34 10.2 18.17C10.811 17.9927 11.4119 17.7824 12 17.54C12.5882 17.7824 13.1891 17.9927 13.8 18.17C13.23 19.34 12.56 20 12 20ZM14.93 13.69C14.47 14.01 14 14.31 13.5 14.6C13 14.89 12.5 15.15 12 15.38C11.5 15.1467 11 14.8867 10.5 14.6C10 14.31 9.50003 14.01 9.07003 13.69C9.00003 13.15 9.00003 12.59 9.00003 12C9.00003 11.41 9.00003 10.85 9.07003 10.31C9.53003 9.99 10 9.69 10.5 9.4C11 9.11 11.5 8.85 12 8.62C12.5 8.85333 13 9.11333 13.5 9.4C14 9.69 14.5 9.99 14.93 10.31C14.93 10.85 15 11.41 15 12C15 12.59 15 13.15 14.93 13.69ZM18.93 16C18.64 16.5 17.7 16.75 16.46 16.66C16.6167 16.0415 16.7336 15.4135 16.81 14.78C17.3195 14.3946 17.8038 13.9771 18.26 13.53C19 14.56 19.22 15.5 18.93 16ZM18.26 10.47C17.8038 10.0229 17.3195 9.60537 16.81 9.22C16.7336 8.5898 16.6167 7.96517 16.46 7.35H16.95C17.95 7.35 18.68 7.59 18.95 8.03C19.22 8.47 19 9.44 18.26 10.47Z" fill="black"/>
</svg>
