<svg width="24" height="24" viewBox="0 0 24 24" fill="none" xmlns="http://www.w3.org/2000/svg">
<path d="M21.0002 18.28V11.72C21.2707 11.5695 21.5025 11.3584 21.6775 11.1032C21.8525 10.8479 21.9659 10.5556 22.0088 10.2491C22.0516 9.94257 22.0228 9.63031 21.9245 9.33686C21.8262 9.04342 21.6611 8.77679 21.4423 8.55795C21.2234 8.33912 20.9568 8.17406 20.6633 8.07575C20.3699 7.97745 20.0576 7.94858 19.7511 7.99143C19.4447 8.03427 19.1523 8.14766 18.897 8.32267C18.6418 8.49768 18.4307 8.72953 18.2802 8.99998H15.0002V5.71998C15.2707 5.56955 15.5025 5.3584 15.6775 5.10317C15.8525 4.84793 15.9659 4.55556 16.0088 4.24906C16.0516 3.94257 16.0228 3.63031 15.9245 3.33686C15.8262 3.04342 15.6611 2.77679 15.4423 2.55795C15.2234 2.33912 14.9568 2.17406 14.6633 2.07575C14.3699 1.97745 14.0576 1.94858 13.7511 1.99143C13.4447 2.03427 13.1523 2.14766 12.897 2.32267C12.6418 2.49768 12.4307 2.72953 12.2802 2.99998H5.72023C5.56979 2.72953 5.35865 2.49768 5.10341 2.32267C4.84817 2.14766 4.5558 2.03427 4.24931 1.99143C3.94281 1.94858 3.63055 1.97745 3.33711 2.07575C3.04366 2.17406 2.77703 2.33912 2.5582 2.55795C2.33937 2.77679 2.1743 3.04342 2.076 3.33686C1.97769 3.63031 1.94883 3.94257 1.99167 4.24906C2.03452 4.55556 2.14791 4.84793 2.32291 5.10317C2.49792 5.3584 2.72977 5.56955 3.00023 5.71998V12.28C2.72977 12.4304 2.49792 12.6416 2.32291 12.8968C2.14791 13.152 2.03452 13.4444 1.99167 13.7509C1.94883 14.0574 1.97769 14.3697 2.076 14.6631C2.1743 14.9565 2.33937 15.2232 2.5582 15.442C2.77703 15.6608 3.04366 15.8259 3.33711 15.9242C3.63055 16.0225 3.94281 16.0514 4.24931 16.0085C4.5558 15.9657 4.84817 15.8523 5.10341 15.6773C5.35865 15.5023 5.56979 15.2704 5.72023 15H9.00023V18.28C8.72977 18.4304 8.49792 18.6416 8.32291 18.8968C8.14791 19.152 8.03452 19.4444 7.99167 19.7509C7.94883 20.0574 7.97769 20.3697 8.076 20.6631C8.1743 20.9565 8.33937 21.2232 8.5582 21.442C8.77703 21.6608 9.04366 21.8259 9.33711 21.9242C9.63055 22.0225 9.94281 22.0514 10.2493 22.0085C10.5558 21.9657 10.8482 21.8523 11.1034 21.6773C11.3586 21.5023 11.5698 21.2704 11.7202 21H18.2802C18.4307 21.2704 18.6418 21.5023 18.897 21.6773C19.1523 21.8523 19.4447 21.9657 19.7511 22.0085C20.0576 22.0514 20.3699 22.0225 20.6633 21.9242C20.9568 21.8259 21.2234 21.6608 21.4423 21.442C21.6611 21.2232 21.8262 20.9565 21.9245 20.6631C22.0228 20.3697 22.0516 20.0574 22.0088 19.7509C21.9659 19.4444 21.8525 19.152 21.6775 18.8968C21.5025 18.6416 21.2707 18.4304 21.0002 18.28ZM8.00023 9.99998C8.00233 10.349 8.09574 10.6914 8.27118 10.9932C8.44661 11.2949 8.69795 11.5455 9.00023 11.72V13H5.72023C5.5498 12.6993 5.30096 12.4504 5.00023 12.28V5.71998C5.30096 5.54956 5.5498 5.30071 5.72023 4.99998H12.2802C12.4507 5.30071 12.6995 5.54956 13.0002 5.71998V8.99998H11.7202C11.4975 8.62457 11.1581 8.33233 10.7538 8.16784C10.3495 8.00335 9.90245 7.97565 9.48092 8.08896C9.05939 8.20228 8.6865 8.45039 8.41915 8.79543C8.15181 9.14047 8.00468 9.56351 8.00023 9.99998V9.99998ZM13.0002 11V12.28C12.6995 12.4504 12.4507 12.6993 12.2802 13H11.0002V11.72C11.301 11.5496 11.5498 11.3007 11.7202 11H13.0002ZM19.0002 18.28C18.6995 18.4504 18.4507 18.6993 18.2802 19H11.7202C11.5498 18.6993 11.301 18.4504 11.0002 18.28V15H12.2802C12.4307 15.2704 12.6418 15.5023 12.897 15.6773C13.1523 15.8523 13.4447 15.9657 13.7511 16.0085C14.0576 16.0514 14.3699 16.0225 14.6633 15.9242C14.9568 15.8259 15.2234 15.6608 15.4423 15.442C15.6611 15.2232 15.8262 14.9565 15.9245 14.6631C16.0228 14.3697 16.0516 14.0574 16.0088 13.7509C15.9659 13.4444 15.8525 13.152 15.6775 12.8968C15.5025 12.6416 15.2707 12.4304 15.0002 12.28V11H18.2802C18.4507 11.3007 18.6995 11.5496 19.0002 11.72V18.28Z" fill="#015C8F"/>
</svg>
