<svg width="24" height="24" viewBox="0 0 24 24" fill="none" xmlns="http://www.w3.org/2000/svg">
<path d="M21.07 16.8302L19 14.7102C18.5547 14.2869 17.9931 14.0065 17.3872 13.9049C16.7813 13.8034 16.1589 13.8853 15.6 14.1402L14.7 13.2402C15.7605 11.8231 16.2449 10.0569 16.0555 8.29702C15.8662 6.53718 15.0172 4.91441 13.6794 3.75539C12.3417 2.59636 10.6145 1.98714 8.84565 2.05037C7.07678 2.1136 5.39754 2.84458 4.14596 4.09615C2.89438 5.34773 2.1634 7.02698 2.10017 8.79585C2.03695 10.5647 2.64617 12.2919 3.80519 13.6296C4.96421 14.9674 6.58699 15.8164 8.34683 16.0057C10.1067 16.1951 11.8729 15.7107 13.29 14.6502L14.18 15.5402C13.8951 16.0998 13.793 16.7348 13.8881 17.3555C13.9831 17.9762 14.2706 18.5515 14.71 19.0002L16.83 21.1202C17.3925 21.682 18.155 21.9975 18.95 21.9975C19.745 21.9975 20.5075 21.682 21.07 21.1202C21.3557 20.8408 21.5828 20.5071 21.7378 20.1388C21.8928 19.7704 21.9726 19.3748 21.9726 18.9752C21.9726 18.5756 21.8928 18.1799 21.7378 17.8116C21.5828 17.4432 21.3557 17.1096 21.07 16.8302V16.8302ZM12.59 12.5902C11.8902 13.2882 10.9993 13.7631 10.0297 13.955C9.06017 14.1469 8.05549 14.0472 7.14259 13.6684C6.2297 13.2896 5.44955 12.6487 4.9007 11.8267C4.35185 11.0048 4.05893 10.0386 4.05893 9.05019C4.05893 8.06182 4.35185 7.09562 4.9007 6.27365C5.44955 5.45168 6.2297 4.81081 7.14259 4.432C8.05549 4.05319 9.06017 3.95343 10.0297 4.14534C10.9993 4.33724 11.8902 4.81219 12.59 5.51019C13.0556 5.97464 13.4251 6.5264 13.6771 7.13385C13.9292 7.7413 14.0589 8.39251 14.0589 9.05019C14.0589 9.70786 13.9292 10.3591 13.6771 10.9665C13.4251 11.574 13.0556 12.1257 12.59 12.5902V12.5902ZM19.66 19.6602C19.567 19.7539 19.4564 19.8283 19.3346 19.8791C19.2127 19.9298 19.082 19.956 18.95 19.956C18.818 19.956 18.6873 19.9298 18.5654 19.8791C18.4436 19.8283 18.333 19.7539 18.24 19.6602L16.12 17.5402C16.0263 17.4472 15.9519 17.3366 15.9011 17.2148C15.8503 17.0929 15.8242 16.9622 15.8242 16.8302C15.8242 16.6982 15.8503 16.5675 15.9011 16.4456C15.9519 16.3237 16.0263 16.2131 16.12 16.1202C16.213 16.0265 16.3236 15.9521 16.4454 15.9013C16.5673 15.8505 16.698 15.8244 16.83 15.8244C16.962 15.8244 17.0927 15.8505 17.2146 15.9013C17.3364 15.9521 17.447 16.0265 17.54 16.1202L19.66 18.2402C19.7537 18.3331 19.8281 18.4437 19.8789 18.5656C19.9297 18.6875 19.9558 18.8182 19.9558 18.9502C19.9558 19.0822 19.9297 19.2129 19.8789 19.3348C19.8281 19.4566 19.7537 19.5672 19.66 19.6602V19.6602Z" fill="#015C8F"/>
</svg>
