<svg width="24" height="24" viewBox="0 0 24 24" fill="none" xmlns="http://www.w3.org/2000/svg">
<path d="M10.0002 18C10.2655 18 10.5198 17.8946 10.7074 17.7071C10.8949 17.5196 11.0002 17.2652 11.0002 17V11C11.0002 10.7348 10.8949 10.4804 10.7074 10.2929C10.5198 10.1054 10.2655 10 10.0002 10C9.73503 10 9.48067 10.1054 9.29314 10.2929C9.1056 10.4804 9.00024 10.7348 9.00024 11V17C9.00024 17.2652 9.1056 17.5196 9.29314 17.7071C9.48067 17.8946 9.73503 18 10.0002 18ZM20.0002 6H16.0002V5C16.0002 4.20435 15.6842 3.44129 15.1216 2.87868C14.559 2.31607 13.7959 2 13.0002 2H11.0002C10.2046 2 9.44153 2.31607 8.87892 2.87868C8.31631 3.44129 8.00024 4.20435 8.00024 5V6H4.00024C3.73503 6 3.48067 6.10536 3.29314 6.29289C3.1056 6.48043 3.00024 6.73478 3.00024 7C3.00024 7.26522 3.1056 7.51957 3.29314 7.70711C3.48067 7.89464 3.73503 8 4.00024 8H5.00024V19C5.00024 19.7956 5.31631 20.5587 5.87892 21.1213C6.44153 21.6839 7.20459 22 8.00024 22H16.0002C16.7959 22 17.559 21.6839 18.1216 21.1213C18.6842 20.5587 19.0002 19.7956 19.0002 19V8H20.0002C20.2655 8 20.5198 7.89464 20.7074 7.70711C20.8949 7.51957 21.0002 7.26522 21.0002 7C21.0002 6.73478 20.8949 6.48043 20.7074 6.29289C20.5198 6.10536 20.2655 6 20.0002 6ZM10.0002 5C10.0002 4.73478 10.1056 4.48043 10.2931 4.29289C10.4807 4.10536 10.735 4 11.0002 4H13.0002C13.2655 4 13.5198 4.10536 13.7074 4.29289C13.8949 4.48043 14.0002 4.73478 14.0002 5V6H10.0002V5ZM17.0002 19C17.0002 19.2652 16.8949 19.5196 16.7074 19.7071C16.5198 19.8946 16.2655 20 16.0002 20H8.00024C7.73503 20 7.48067 19.8946 7.29314 19.7071C7.1056 19.5196 7.00024 19.2652 7.00024 19V8H17.0002V19ZM14.0002 18C14.2655 18 14.5198 17.8946 14.7074 17.7071C14.8949 17.5196 15.0002 17.2652 15.0002 17V11C15.0002 10.7348 14.8949 10.4804 14.7074 10.2929C14.5198 10.1054 14.2655 10 14.0002 10C13.735 10 13.4807 10.1054 13.2931 10.2929C13.1056 10.4804 13.0002 10.7348 13.0002 11V17C13.0002 17.2652 13.1056 17.5196 13.2931 17.7071C13.4807 17.8946 13.735 18 14.0002 18Z" fill="#015C8F"/>
</svg>
