<svg width="24" height="24" viewBox="0 0 24 24" fill="none" xmlns="http://www.w3.org/2000/svg">
<path d="M16 9.99998H14V7.99998C14 7.73477 13.8946 7.48041 13.7071 7.29288C13.5196 7.10534 13.2652 6.99998 13 6.99998H7.99998C7.73477 6.99998 7.48041 7.10534 7.29288 7.29288C7.10534 7.48041 6.99998 7.73477 6.99998 7.99998V13C6.99998 13.2652 7.10534 13.5196 7.29288 13.7071C7.48041 13.8946 7.73477 14 7.99998 14H9.99998V16C9.99998 16.2652 10.1053 16.5196 10.2929 16.7071C10.4804 16.8946 10.7348 17 11 17H16C16.2652 17 16.5196 16.8946 16.7071 16.7071C16.8946 16.5196 17 16.2652 17 16V11C17 10.7348 16.8946 10.4804 16.7071 10.2929C16.5196 10.1053 16.2652 9.99998 16 9.99998ZM9.99998 11V12H8.99998V8.99998H12V9.99998H11C10.7348 9.99998 10.4804 10.1053 10.2929 10.2929C10.1053 10.4804 9.99998 10.7348 9.99998 11ZM15 15H12V12H15V15ZM21 18.28V5.71998C21.2704 5.56955 21.5023 5.3584 21.6773 5.10317C21.8523 4.84793 21.9657 4.55556 22.0085 4.24906C22.0514 3.94257 22.0225 3.63031 21.9242 3.33686C21.8259 3.04342 21.6608 2.77679 21.442 2.55795C21.2232 2.33912 20.9565 2.17406 20.6631 2.07575C20.3697 1.97745 20.0574 1.94858 19.7509 1.99143C19.4444 2.03427 19.152 2.14766 18.8968 2.32267C18.6416 2.49768 18.4304 2.72953 18.28 2.99998H5.71998C5.56955 2.72953 5.3584 2.49768 5.10317 2.32267C4.84793 2.14766 4.55556 2.03427 4.24906 1.99143C3.94257 1.94858 3.63031 1.97745 3.33686 2.07575C3.04342 2.17406 2.77679 2.33912 2.55795 2.55795C2.33912 2.77679 2.17406 3.04342 2.07575 3.33686C1.97745 3.63031 1.94858 3.94257 1.99143 4.24906C2.03427 4.55556 2.14766 4.84793 2.32267 5.10317C2.49768 5.3584 2.72953 5.56955 2.99998 5.71998V18.28C2.72953 18.4304 2.49768 18.6416 2.32267 18.8968C2.14766 19.152 2.03427 19.4444 1.99143 19.7509C1.94858 20.0574 1.97745 20.3697 2.07575 20.6631C2.17406 20.9565 2.33912 21.2232 2.55795 21.442C2.77679 21.6608 3.04342 21.8259 3.33686 21.9242C3.63031 22.0225 3.94257 22.0514 4.24906 22.0085C4.55556 21.9657 4.84793 21.8523 5.10317 21.6773C5.3584 21.5023 5.56955 21.2704 5.71998 21H18.28C18.4304 21.2704 18.6416 21.5023 18.8968 21.6773C19.152 21.8523 19.4444 21.9657 19.7509 22.0085C20.0574 22.0514 20.3697 22.0225 20.6631 21.9242C20.9565 21.8259 21.2232 21.6608 21.442 21.442C21.6608 21.2232 21.8259 20.9565 21.9242 20.6631C22.0225 20.3697 22.0514 20.0574 22.0085 19.7509C21.9657 19.4444 21.8523 19.152 21.6773 18.8968C21.5023 18.6416 21.2704 18.4304 21 18.28ZM19 18.28C18.6993 18.4504 18.4504 18.6993 18.28 19H5.71998C5.54956 18.6993 5.30071 18.4504 4.99998 18.28V5.71998C5.30071 5.54956 5.54956 5.30071 5.71998 4.99998H18.28C18.4504 5.30071 18.6993 5.54956 19 5.71998V18.28Z" fill="#015C8F"/>
</svg>
